<svg width="69" height="68" viewBox="0 0 69 68" fill="none" xmlns="http://www.w3.org/2000/svg">
<g clip-path="url(#clip0_2_27)">
<path d="M68.4379 25.6037C67.9317 24.0423 66.5775 22.8924 64.934 22.6332L46.7373 19.8701L38.566 2.90244C37.8297 1.34433 36.2454 0.349869 34.5 0.349869C32.7546 0.349869 31.1703 1.34433 30.4341 2.90244L22.335 19.8668L4.13832 22.6299V22.6331C2.48501 22.8955 1.11427 24.039 0.578511 25.6036C0.0427509 27.1682 0.427308 28.898 1.57775 30.0966L14.8998 43.5722L11.7805 62.5417C11.4912 64.2229 12.2078 65.9171 13.6212 66.8986C15.0379 67.8801 16.8983 67.9741 18.407 67.1351L34.5 58.1881L50.593 66.9991C51.257 67.3619 52.0064 67.553 52.7657 67.5497C53.6926 67.5465 54.5965 67.2712 55.3623 66.7561C56.7823 65.781 57.5054 64.0869 57.2194 62.4024L54.1001 43.4329L67.4222 29.9573C68.543 28.7977 68.931 27.1293 68.4379 25.6037ZM49.3998 40.9095C48.818 41.4925 48.5551 42.3153 48.6997 43.122L51.7862 61.8485L35.7622 53.1055V53.1088C34.9733 52.6909 34.0267 52.6909 33.2378 53.1088L17.2138 61.8484L20.4745 43.1219C20.6191 42.3153 20.3594 41.4925 19.7743 40.9094L6.4523 27.5374L24.6128 24.7743C25.4772 24.6577 26.2201 24.1103 26.5751 23.3231L34.5 6.53041L42.4939 23.3231C42.8489 24.1103 43.5917 24.6577 44.4561 24.7743L62.6166 27.5374L49.3998 40.9095Z" fill="#E3BCAF"/>
</g>
<defs>
<clipPath id="clip0_2_27">
<rect width="69" height="68" fill="white"/>
</clipPath>
</defs>
</svg>
