<svg width="70" height="68" viewBox="0 0 70 68" fill="none" xmlns="http://www.w3.org/2000/svg">
<g clip-path="url(#clip0_1_3)">
<path d="M67.164 23.461L48.617 20.7657C47.5623 20.6134 46.6561 19.9493 46.1834 18.9962L37.8904 2.1912C36.7068 -0.211102 33.2771 -0.211102 32.0935 2.1912L23.7966 19.0002C23.3239 19.9533 22.4138 20.6174 21.363 20.7697L2.847 23.4611C0.1829 23.8478 -0.8796 27.1252 1.0462 29.0002L14.4442 42.0592C15.2059 42.8014 15.5536 43.8717 15.3739 44.9225L12.2059 63.3955C11.7528 66.0361 14.5262 68.0478 16.8973 66.8017L33.4833 58.079C34.4247 57.5868 35.5497 57.5868 36.4911 58.079L53.0771 66.8017C55.4482 68.0478 58.2216 66.0361 57.7685 63.3955L54.6005 44.9225C54.4208 43.8717 54.7685 42.8053 55.5302 42.0592L68.9522 28.9772C70.8741 27.1061 69.8155 23.8483 67.1631 23.4616L67.164 23.461Z" fill="black"/>
</g>
<defs>
<clipPath id="clip0_1_3">
<rect width="70" height="68" fill="white"/>
</clipPath>
</defs>
</svg>
